<svg xmlns="http://www.w3.org/2000/svg" xmlns:xlink="http://www.w3.org/1999/xlink" width="727.368" height="437.5" viewBox="0 0 727.368 437.5"><defs><linearGradient id="a" x1="0.098" y1="0.959" x2="0.921" gradientUnits="objectBoundingBox"><stop offset="0" stop-color="#f199a2"/><stop offset="0.381" stop-color="#f19ca4"/><stop offset="1" stop-color="#fc5e6e"/></linearGradient><linearGradient id="b" x1="0.749" y1="0.532" x2="0.014" y2="0.032" gradientUnits="objectBoundingBox"><stop offset="0" stop-color="#ebd9a7" stop-opacity="0.22"/><stop offset="1" stop-color="#fec00c"/></linearGradient></defs><path d="M399.155,403.626a22.908,22.908,0,0,1-3.115,1.04q-1.78.437-3.592.718a60.29,60.29,0,0,1-7.478.654c-2.413.053-4.555.009-6.153-.11-.292-1.26.48-1.2,1.135-1.291s1.171-.333.416-2.153c1.267.792,1.414,4.2,3.684,2.732-.032-2.311-1.222-1.893-2.25-1.85,1-2.06,2.35-1.258,3.73-.511,1.267.693,2.594,1.355,3.64-.2a3.978,3.978,0,0,1,.274-.47,4.2,4.2,0,0,1-.275.47c-.7,1.4.915,1.177,3.495.452,2.847-.77,6.814-2.16,10.21-2.482-.5,1.226-1.859,2.22-3.72,3m-77.218-31.511c-.467.486-2.151.446-3.493-1.555a2.778,2.778,0,0,1-2.89.354c.351-.807.934-.858,1.2-1.9-.5-.336-.718.24-.927.865-1.622-3.32,3.3-1.78,2.612.681,3.278.082,3.962,1.066,3.493,1.555M312.4,374.5c1.192-1.973,4.994.2,5.449,1.427-1.984,1.44-2.689-.527-5.449-1.427M726.855,244.526a80.52,80.52,0,0,0-2.239-11.893q-.31-1.148-.652-2.287c-.458-1.509-.963-3.086-1.51-4.533q-.83-2.234-1.78-4.42c-.639-1.49-1.322-2.868-2.053-4.305a78.247,78.247,0,0,0-4.958-8.341,82.026,82.026,0,0,0-13.7-15.385c-1.666-1.456-3.43-2.812-5.223-4.1l-.675-.477-.619-.417-1.225-.8q-1.231-.781-2.494-1.51a60.765,60.765,0,0,0-10.1-4.607,62.489,62.489,0,0,0-19.459-3.448,76.338,76.338,0,0,0-16.883,1.666c-5.132,1.054-9.761,2.427-13.967,3.658q-1.607.489-3.17,1.107c-1,.423-2,.876-2.97,1.37a62.725,62.725,0,0,0-5.563,3.372,94.216,94.216,0,0,0-10.262,8.176c-6.441,5.785-11.983,11.8-16.894,15.464-.553.41-1.17-1.659-2.263-1.09-2.776,1.507-5.726,5.014-8.426,8.629-2.716,3.675-5.18,7.362-7.293,9.215-2.48-.418-3.719,2.338-4.867,4.463-1.163,2.11-2.227,3.66-4.64.82a50.417,50.417,0,0,1-3.013,5.175,51.112,51.112,0,0,1-3.27,4.45,49.529,49.529,0,0,1-3.47,3.755q-1.71,1.723-3.585,3.27-.908.75-1.823,1.439c-.608.464-1.211.945-1.818,1.389q-1.772,1.309-3.62,2.509c-1.2.764-2.362,1.59-3.51,2.321l-3.332,2.154c.192,2.716,2.475,4.685,1.542,5.138-1.364,1.048-2.184-3.293-3.582-2.235.143,2.518,2.34,3.489,1.3,4.091a11.017,11.017,0,0,0-1.858-2.789c.4,1.816,1.492,2.415.994,3.066-.435.133-.243.992-.526,1.293-.8-.434-1.362-3.9-2.228-3.8.716,2.228.164,2.03-.431,1.867s-1.241-.31-.677,1.934c.712-.32,1.36.381,1.969,1.56-2.81.855-5.627,3.412-8.141,5.952q-.926.911-1.887,1.785c-.614.573-1.207,1.13-1.8,1.6a6.838,6.838,0,0,1-3.6,1.656c.21,2.465-.5,3.237-1.4,3.85a9.933,9.933,0,0,0-1.377.99,3.71,3.71,0,0,0-1.01,1.938c-1.708-3.97-2.53-2.2-2.544-1.066.525-.145,1.058-.207,1.79,1.477-.222,2.16-1.466,2.41-2.873,2.36-1.4-.07-2.963-.514-3.709.125-.826.714.266,5.7-1.174,5.72-1.692.015-2.74,1.059-3.62,2.35a43.149,43.149,0,0,1-2.72,4.209,62.758,62.758,0,0,1-5.19,5.31c-1.91,1.756-3.918,3.43-6.067,5.13-4.264,3.362-8.924,6.656-13.6,9.9l-3.478,2.42-3.417,2.4c-2.29,1.592-4.431,3.19-6.528,4.773-1.041.792-2.01,1.6-2.984,2.394q-1.424,1.156-2.766,2.407a38.7,38.7,0,0,0-4.554,4.942,6.754,6.754,0,0,0-4.9.17,19.3,19.3,0,0,0-4.677,2.753c-1.485,1.1-2.874,2.28-4.054,3.208a6.641,6.641,0,0,1-2.832,1.573c-1.927.08-1.166,2.651-4.32,4.066-5.5,2.441-9.554,4.7-14.213-.6a8.321,8.321,0,0,1-4.088,3.453,20.076,20.076,0,0,1-5.094,1.243c-.854.125-1.69.238-2.482.382a14.565,14.565,0,0,0-2.235.518,4.98,4.98,0,0,0-3.119,2.533c1.1.364,2.349-.014,3.193,1.424q-1.884.486-3.784.91l-.967-4.179a19.132,19.132,0,0,1-4.54,1.1c-1.5.194-2.97.317-4.408.442a21.008,21.008,0,0,0-4.164.755,11,11,0,0,0-3.885,2.047c.625.16,1.574,1.533.866,2.03-1.7-.07-4.149,1.8-4.7-1.488,1.236-1.354,3.078,2.857,3.29-.462-1.345-.659-2.439-1.922-4.119-1.605.11,1.605.706,3.9-.012,4.328a22.313,22.313,0,0,0-9.8.423q-2.125.52-4.22,1.154a37.611,37.611,0,0,1-3.746.892c.165-.664,1.32-4.176-.119-4.287-2.79,3.756-7.19,2.769-11.344,1.5-4.187-1.249-8.06-2.655-11.012.68-.11-2.808-1.4-3.656-2.906-3.434a6.315,6.315,0,0,0-4.153,3.45c.427-2.31-.016-3.607-.927-4.34a7.1,7.1,0,0,0-3.827-1.018c-1.363.01.28,3.049-1.977,2.844a22.319,22.319,0,0,0-2.426-2.066,18.455,18.455,0,0,0-2.493-1.516,35.675,35.675,0,0,0-5.37-2.175c-1.872-.662-3.877-1.258-5.937-2.169a31.441,31.441,0,0,1-6.409-3.6c-1.89,1.816-.238,4.344-1.883,3.853-2.013.33-3.943-.877-5.512-2.375-1.56-1.525-2.832-3.22-3.747-3.939.91.751-1.236,1.477-.551-.345,1.556-1.587,2.006-.572,2.657.445s1.45,2.12,3.443.654c-.818-.535-2.246-2.27-3.715-3.662s-3.073-2.368-4.5-1.327c-.91,1.548.181,1.3,1.072,1.168s1.574-.116-.065,2.028a6.726,6.726,0,0,1-2.24-.747,8.855,8.855,0,0,1-1.605-1.264c-.528-.5-1.094-1.065-1.841-1.708a27.228,27.228,0,0,0-2.867-2.247c1.047-1.026,1.975-1.08,3.11-3.031a6.445,6.445,0,0,1-4.785,1.068,21.626,21.626,0,0,0-6-.125,22.933,22.933,0,0,0,2.173,3.448q.6.795,1.238,1.539.656.72,1.348,1.4c.925.9,1.873,1.774,2.88,2.576s2.04,1.574,3.085,2.354c4.24,3.065,8.66,6.013,13.118,10.84a116.309,116.309,0,0,1-14.718-8.7q-1.476-1.088-2.9-2.244c-.945-.759-1.825-1.6-2.715-2.452a45.972,45.972,0,0,1-5.1-5.874c-.9.887-1.89,2.4-2.626,1.983,1.156-2.022.443-3.593-.859-4.835a23.3,23.3,0,0,0-4.342-2.947c2.79,3.318-.42.375-2.026,1.026.895.3,1.12,1.97,1.069,3.344-.05,1.266-.35,2.267-.676,1.637.685,1.733,2.41,3.028,4.046,4.278,1.7,1.3,3.4,2.428,3.906,4,.248.726-2.23,2.033-1.43,2.984-.065-.087,2.029-2.506,2.568-2.072,1.417,1.143.806,4.161,2.19,5.675,1.377,1.436,4.6,1.747,6.125,2.892,7.453,5.6,15.86,11.7,25.476,16.78a117,117,0,0,0,29.945,11.269,118.619,118.619,0,0,0,19.45,2.455c6.318.31,12.41.227,18.26.08s11.466-.353,16.9-.332a135.232,135.232,0,0,1,16.262.965q-3.4.092-6.785.506c-2.323.234-4.682.628-7.108.983-4.8.775-9.962,1.682-15.4,2.371a106.979,106.979,0,0,1-17.056.927,65.26,65.26,0,0,1-17.615-2.89c-1.44,3.536-3.04-.917-4.05,2.837,6.091.64,13.656,1.18,20.85,1.571,7.212.415,14.067.726,19.21,1.506.769,2.85-3.223-.444-2.484,2.4,1.63.639,5.048-2.452,4.962,1.663a214.7,214.7,0,0,1-38.021-1.381q-10.293-1.269-20.455-3.386c-1.675-.323-3.375-.73-5.034-1.092s-3.319-.765-4.954-1.161l-2.436-.586-2.43-.634c-1.6-.425-3.2-.813-4.736-1.232a48.819,48.819,0,0,0,6.708,4.124,70.657,70.657,0,0,0,7.443,3.2c2.636.99,5.385,1.845,8.358,2.755l4.568,1.31c1.588.461,3.181.867,4.874,1.34a117.932,117.932,0,0,0,22.508,3.651,188.034,188.034,0,0,0,22.008.107l2.6-.13,2.535-.162c1.7-.1,3.33-.225,4.943-.346l9.279-.727c5.963-.44,11.445-.857,16.254-.76,1.347-1.56,5.83-3.2,10.5-4.348a46.7,46.7,0,0,1,6.819-1.2,11.659,11.659,0,0,1,5.033.323c6.794-2.314,13.9-5.145,21.021-8.311s14.266-6.66,21.2-10.231c3.514-1.788,6.793-3.567,10.094-5.262,3.107-1.667,6.29-3.284,9.109-4.713l2.157-1.06,2.087-1q1.987-.942,4.008-1.81.973-.406,1.924-.8.932-.378,1.856-.725,1.792-.679,3.623-1.247c-.19.426-.867.617-.3,1.5a40.728,40.728,0,0,0,5.636-2.54,36.9,36.9,0,0,0,5.13-3.347,24.505,24.505,0,0,0,4.006-3.925,15.074,15.074,0,0,0,2.433-4.4c-2.027-1.849-2.76,2.658-4.83.678a15.312,15.312,0,0,1,2.43-2.821,5.993,5.993,0,0,1,1.694-1.02,6.723,6.723,0,0,1,2.255-.44c.738,1.156.381,1.529,1.432,2.906l1.214-.887,1.14-.8,2.267-1.568,2.12-1.393c.7-.456,1.417-.926,2.047-1.3l1.94-1.2c.332-.213.628-.382.923-.554l.889-.524.884-.531c.3-.184.587-.36.848-.5q.807-.458,1.6-.94c.548-.348,1.015-.6,1.49-.887s.95-.59,1.412-.888a25.475,25.475,0,0,0,2.645-1.757,25.855,25.855,0,0,0,2.72-2,30.483,30.483,0,0,0,2.828-2.345c2.746-2.385,5.6-5.194,8.7-8.423.784-.785,1.587-1.586,2.388-2.443l1.217-1.3,1.262-1.293,5.28-5.593c3.686-3.848,7.666-8.127,12.037-12.539,2.172-2.283,4.455-4.483,6.812-6.893l3.616-3.547c1.229-1.21,2.48-2.451,3.757-3.649.945-.9,1.923-1.816,2.91-2.722l1.485-1.347,1.473-1.267c1.94-1.656,3.83-3.21,5.317-4.415a30.4,30.4,0,0,1,6.7-4.062,53.309,53.309,0,0,0,6.514-3.372c3.057-1.919,6.56-4.773,10.838-7.16a34.137,34.137,0,0,1,6.874-2.971,26.137,26.137,0,0,1,3.73-.841,20.812,20.812,0,0,1,3.829-.16,19.987,19.987,0,0,1,7.1,1.864,35.36,35.36,0,0,1,7.436,4.552,68.726,68.726,0,0,1,6.875,6.268c.547.544,1.048,1.11,1.58,1.648s1.067,1.062,1.557,1.591,1.005,1.015,1.53,1.5q.386.355.779.69c.25.226.5.445.754.655q1.633,1.353,3.387,2.548a28.357,28.357,0,0,0,3.307,2.034,18.821,18.821,0,0,0,6.815,2.116,17.2,17.2,0,0,0,7.049-.793,25.179,25.179,0,0,0,7.02-3.68,41.9,41.9,0,0,0,6.418-5.9q1.486-1.656,2.86-3.407c.909-1.153,1.781-2.32,2.62-3.467l2.4-3.291q1.074-1.472,2.228-2.884a12.361,12.361,0,0,1,4.278-3.689,82.88,82.88,0,0,0,.223-20.218" fill-rule="evenodd" fill="url(#a)"/><path d="M256.233,420c185.316,72,210-94.02,210-210s-94.02-210-210-210S184.156,159.293,64.578,218.75,70.916,348,256.233,420Z" fill-rule="evenodd" fill="url(#b)"/><path d="M3.686,200l-2.9,1.334L0,204.157l.926,2.688L3.686,208l2.6-1.31L8,204.156l-1.3-2.94Z" fill="#61effd" fill-rule="evenodd"/><path d="M56.3,231l-1.812.833L54,233.6l.579,1.68L56.3,236l1.624-.82L59,233.6l-.81-1.837Zm-24-19-1.812.833L30,214.6l.579,1.68L32.3,217l1.624-.82L35,214.6l-.81-1.837Z" fill="#2feafc" fill-rule="evenodd"/><path d="M20.3,166l-1.812.833L18,168.6l.579,1.68L20.3,171l1.624-.82L23,168.6l-.81-1.837Z" fill="#93f4fe" fill-rule="evenodd"/><path d="M69.3,202l-1.812.833L67,204.6l.579,1.68L69.3,207l1.624-.82L72,204.6l-.81-1.837Z" fill="rgba(97,239,253,0.24)" fill-rule="evenodd"/><path d="M61.3,168l-1.812.833L59,170.6l.579,1.68L61.3,173l1.624-.82L64,170.6l-.81-1.837Z" fill="rgba(83,95,215,0.24)" fill-rule="evenodd"/></svg>