<svg xmlns="http://www.w3.org/2000/svg" width="131.229" height="42.679" viewBox="0 0 131.229 42.679"><g transform="translate(-17380.73 -2755.543)"><g transform="translate(17374.752 2749.101)"><g transform="translate(0)"><path d="M3.684.06a.77.77,0,0,1-.57-.21A.754.754,0,0,1,2.9-.708v-6.48H.72Q0-7.188,0-7.824T.72-8.46H6.636q.72,0,.72.636t-.72.636H4.452v6.48a.754.754,0,0,1-.21.558A.754.754,0,0,1,3.684.06Zm7.884-6.072q2.064,0,2.064,2.412V-.648a.7.7,0,0,1-.2.528.751.751,0,0,1-.546.192.773.773,0,0,1-.552-.192.69.69,0,0,1-.2-.528V-3.6a1.389,1.389,0,0,0-.258-.93,1.023,1.023,0,0,0-.81-.294,1.369,1.369,0,0,0-1.038.408,1.514,1.514,0,0,0-.39,1.092V-.648a.69.69,0,0,1-.2.528A.773.773,0,0,1,8.88.072.751.751,0,0,1,8.334-.12a.7.7,0,0,1-.2-.528V-7.824a.651.651,0,0,1,.21-.5.778.778,0,0,1,.546-.192.786.786,0,0,1,.54.18.622.622,0,0,1,.2.492v2.8a1.964,1.964,0,0,1,.8-.714A2.527,2.527,0,0,1,11.568-6.012Zm8.232,4.4a.4.4,0,0,1,.33.156.649.649,0,0,1,.126.42.728.728,0,0,1-.444.624,4.012,4.012,0,0,1-.924.366A3.809,3.809,0,0,1,17.9.1,3.058,3.058,0,0,1,15.66-.72a2.991,2.991,0,0,1-.828-2.232,3.424,3.424,0,0,1,.36-1.6,2.618,2.618,0,0,1,1.014-1.08,2.872,2.872,0,0,1,1.482-.384,2.659,2.659,0,0,1,1.38.348,2.36,2.36,0,0,1,.912.984,3.265,3.265,0,0,1,.324,1.5q0,.516-.456.516h-3.54a1.888,1.888,0,0,0,.468,1.218,1.575,1.575,0,0,0,1.152.39,2.184,2.184,0,0,0,.678-.1,6.692,6.692,0,0,0,.666-.264A1.324,1.324,0,0,1,19.8-1.608ZM17.724-4.956a1.288,1.288,0,0,0-.978.384,1.813,1.813,0,0,0-.438,1.1H19.02a1.711,1.711,0,0,0-.36-1.11A1.187,1.187,0,0,0,17.724-4.956Z" transform="translate(5.979 14.962)" fill="#11ac6a"/><path d="M13,.3A12.019,12.019,0,0,1,7-1.155a9.771,9.771,0,0,1-3.96-4.158A13.722,13.722,0,0,1,1.65-11.649a13.62,13.62,0,0,1,1.386-6.32A9.793,9.793,0,0,1,7-22.11,12.019,12.019,0,0,1,13-23.562a11.993,11.993,0,0,1,7.458,2.376,2.485,2.485,0,0,1,.693.792,2.2,2.2,0,0,1,.2.99,2.308,2.308,0,0,1-.478,1.468,1.441,1.441,0,0,1-1.172.611,2.559,2.559,0,0,1-.808-.115,3.165,3.165,0,0,1-.776-.413,11.1,11.1,0,0,0-2.442-1.238,7.471,7.471,0,0,0-2.409-.379A5.791,5.791,0,0,0,8.5-17.507q-1.6,1.964-1.6,5.858Q6.9-3.8,13.266-3.8a6.969,6.969,0,0,0,2.31-.38,14.626,14.626,0,0,0,2.541-1.237,4.742,4.742,0,0,1,.825-.412A2.293,2.293,0,0,1,19.7-5.94a1.441,1.441,0,0,1,1.172.61,2.308,2.308,0,0,1,.478,1.468,2.161,2.161,0,0,1-.215,1.007,2.436,2.436,0,0,1-.676.776A11.993,11.993,0,0,1,13,.3ZM27.093,0a2.41,2.41,0,0,1-1.782-.627,2.41,2.41,0,0,1-.627-1.782V-20.856a2.41,2.41,0,0,1,.627-1.782,2.41,2.41,0,0,1,1.782-.627H38.775q2.442,0,2.442,1.98,0,2.013-2.442,2.013H29.7v5.445h8.415q2.442,0,2.442,2.013,0,1.98-2.442,1.98H29.7v5.841h9.075q2.442,0,2.442,2.013Q41.217,0,38.775,0Z" transform="translate(5.979 37.899)" fill="#eceff1"/><path d="M4.719,0A2.41,2.41,0,0,1,2.937-.627,2.41,2.41,0,0,1,2.31-2.409v-18.48A2.5,2.5,0,0,1,3-22.737a2.542,2.542,0,0,1,1.881-.693,2.542,2.542,0,0,1,1.881.693,2.5,2.5,0,0,1,.693,1.848v16.7h8.448q2.409,0,2.409,2.112Q18.315,0,15.906,0ZM30.261.3a11.888,11.888,0,0,1-6.023-1.469A9.925,9.925,0,0,1,20.3-5.33a13.62,13.62,0,0,1-1.386-6.319,13.62,13.62,0,0,1,1.386-6.32,9.821,9.821,0,0,1,3.943-4.141,12,12,0,0,1,6.023-1.452,12,12,0,0,1,6.022,1.452,9.821,9.821,0,0,1,3.944,4.141,13.621,13.621,0,0,1,1.386,6.32A13.62,13.62,0,0,1,40.227-5.33a9.926,9.926,0,0,1-3.944,4.158A11.888,11.888,0,0,1,30.261.3Zm0-3.993a5.576,5.576,0,0,0,4.57-2.046A9.151,9.151,0,0,0,36.5-11.649a9.145,9.145,0,0,0-1.65-5.891,5.584,5.584,0,0,0-4.587-2.03,5.537,5.537,0,0,0-4.57,2.03,9.211,9.211,0,0,0-1.634,5.891,9.216,9.216,0,0,0,1.65,5.907A5.529,5.529,0,0,0,30.261-3.7ZM63.294-23.43a2.328,2.328,0,0,1,1.766.709,2.545,2.545,0,0,1,.676,1.832V-2.376A2.59,2.59,0,0,1,65.06-.512,2.328,2.328,0,0,1,63.294.2,2.384,2.384,0,0,1,61.38-.66L50.325-14.817V-2.376a2.668,2.668,0,0,1-.644,1.865A2.224,2.224,0,0,1,47.949.2,2.276,2.276,0,0,1,46.2-.512a2.628,2.628,0,0,1-.66-1.865V-20.889a2.545,2.545,0,0,1,.676-1.832,2.328,2.328,0,0,1,1.765-.709,2.233,2.233,0,0,1,1.881.858L60.918-8.514V-20.889a2.582,2.582,0,0,1,.66-1.832A2.236,2.236,0,0,1,63.294-23.43Z" transform="translate(71.47 37.899)" fill="#eceff1"/><g transform="translate(47.978 10.962)"><path d="M15.982,16.906H6.453a.953.953,0,1,1,0-1.906h9.529a.953.953,0,1,1,0,1.906Z" transform="translate(1.167 13.586)" fill="#eceff1"/><path d="M26.679,2.539A.951.951,0,0,0,25.822,2H2.951a.957.957,0,0,0-.745,1.548L13.434,17.582V27.729a.953.953,0,1,0,1.906,0V17.582L26.567,3.549a.953.953,0,0,0,.112-1.01Z" transform="translate(-2.002 1.81)" fill="#eceff1"/><path d="M4.341,4l7.927,9.909L20.2,4Z" transform="translate(0.117 3.621)" fill="#fe4f60"/><path d="M14.615,1.428,13.262,3.811H11.07L12.976.475a.936.936,0,0,1,1.3-.343.936.936,0,0,1,.343,1.3Z" transform="translate(6.213 -0.001)" fill="#676767"/><path d="M14.587,2l-3.2,5.641a.943.943,0,0,1-1.3.343.959.959,0,0,1-.362-1.3L12.4,2h2.192Z" transform="translate(4.887 1.81)" fill="#949494"/><ellipse cx="2.884" cy="2.884" rx="2.884" ry="2.884" transform="translate(11.409 7.623)" fill="#11ac6a"/></g><path d="M5.954-.007a.336.336,0,0,1-.133-.062.322.322,0,0,1-.1-.116.355.355,0,0,1-.034-.171,1.055,1.055,0,0,1,.007-.116,4.33,4.33,0,0,1,.171-.643Q5.92-1.292,6.149-2T6.61-3.421q.232-.714.3-.913.021-.068.031-.109a.363.363,0,0,0,.01-.048V-4.5l-.229.021-.5.051q-.287.031-.547.062l-.39.044q-.185.027-.3.041t-.188.024a.8.8,0,0,0-.1.021.337.337,0,0,0-.048.017.022.022,0,0,0-.014.021q-.007.021-.062.133T4.443-3.8a13.174,13.174,0,0,1-.656,1.217q-.082.137-.212.362t-.246.438q-.253.465-.39.7a2.734,2.734,0,0,1-.215.332.453.453,0,0,1-.154.13A.378.378,0,0,1,2.4-.581a.351.351,0,0,1-.171-.041A.383.383,0,0,1,2-.984a.808.808,0,0,1,.055-.273q.027-.075.133-.335t.243-.588q.13-.314.246-.588t.157-.39a.02.02,0,0,0,.007-.014l.1-.236.109-.25q.048-.116.082-.188a.552.552,0,0,0,.034-.079s-.03.006-.075.017l-.171.044a1.856,1.856,0,0,1-.472.082.4.4,0,0,1-.178-.034.335.335,0,0,1-.205-.328v-.021A.342.342,0,0,1,2.3-4.478a3.352,3.352,0,0,1,.889-.205l.349-.055L3.7-5.1a20.039,20.039,0,0,0,.831-2.123,4.7,4.7,0,0,0,.256-1.193.808.808,0,0,0-.014-.157q-.014-.075-.044-.092a.161.161,0,0,0-.079-.017.593.593,0,0,0-.082.007,2.553,2.553,0,0,0-.967.366,5.572,5.572,0,0,0-1.077.817q-.253.253-.417.451a.681.681,0,0,0-.164.253A.155.155,0,0,1,1.9-6.7a.269.269,0,0,1-.1.079.243.243,0,0,1-.109.027A.258.258,0,0,1,1.606-6.6a.226.226,0,0,1-.144-.123.287.287,0,0,1-.027-.13v-.034A.745.745,0,0,1,1.477-7.1a3.234,3.234,0,0,1,.718-.978A5.789,5.789,0,0,1,4.047-9.386a2.06,2.06,0,0,1,.759-.171.963.963,0,0,1,.711.28,1.433,1.433,0,0,1,.376,1.06,2.921,2.921,0,0,1-.041.465A12.282,12.282,0,0,1,5-5.038l-.044.113a.29.29,0,0,0-.017.051L5.264-4.9q.308-.024.766-.065t.776-.062l.332-.027H7.15s.008,0,.01-.01a.264.264,0,0,1,.014-.031A.58.58,0,0,0,7.2-5.151q.014-.038.038-.1t.051-.14a.375.375,0,0,1,.021-.048q.109-.308.277-.725t.3-.738q.144-.342.308-.7t.465-.974l.277-.578q.12-.25.14-.311Q9.229-9.8,9.5-9.8a.561.561,0,0,1,.226.055.576.576,0,0,1,.294.547,1.055,1.055,0,0,1-.007.116,1.6,1.6,0,0,1-.079.325q-.065.195-.232.574t-.482,1.07q-.178.39-.376.841L8.5-5.489q-.147.335-.147.349s.006.009.017.014a.355.355,0,0,0,.044.014.233.233,0,0,1,.062.027.318.318,0,0,1,.062.048A.272.272,0,0,1,8.572-5a.079.079,0,0,1,.014.044v.147a.069.069,0,0,1-.014.044.58.58,0,0,1-.041.044.282.282,0,0,1-.106.068.5.5,0,0,1-.161.021.2.2,0,0,0-.116.021.924.924,0,0,0-.072.154l-.14.338q-.082.205-.181.438t-.167.383q-.075.171-.15.352t-.195.482q-.12.3-.325.834Q6.4-.287,6.31-.15a.308.308,0,0,1-.133.116A.384.384,0,0,1,6.022,0,.348.348,0,0,1,5.954-.007ZM9.762-2.933a.874.874,0,0,1-.506-.383,1.112,1.112,0,0,1-.178-.479Q9.064-4,9.064-4.067a1.907,1.907,0,0,1,.068-.513,4.188,4.188,0,0,1,.561-1.2,5.864,5.864,0,0,1,.54-.684,1.526,1.526,0,0,1,.451-.369.658.658,0,0,1,.239-.048.589.589,0,0,1,.362.13.326.326,0,0,0,.048.031.114.114,0,0,0,.051.01h.106a.954.954,0,0,1,.738.335,1.081,1.081,0,0,1,.13.167,1.048,1.048,0,0,1,.089.195.868.868,0,0,1,.048.3,1.323,1.323,0,0,1-.041.335,2.175,2.175,0,0,1-.072.229,2.069,2.069,0,0,1-.085.2l-.027.062.082-.027a2.224,2.224,0,0,0,.656-.335,3.517,3.517,0,0,0,.718-.6q.123-.157.226-.157a.162.162,0,0,1,.123.062.136.136,0,0,1,.041.048.152.152,0,0,1,.014.068l.007.034-.007.027a.091.091,0,0,1-.014.044l-.041.072a1.465,1.465,0,0,1-.181.219q-.12.123-.236.226-.1.068-.287.2t-.383.253a2.764,2.764,0,0,1-.294.171,1.781,1.781,0,0,1-.581.191l-.164.027-.109.144a4.326,4.326,0,0,1-1.032,1.019,2.517,2.517,0,0,1-.239.14,1.593,1.593,0,0,1-.232.092.927.927,0,0,1-.236.055l-.126.007A1.013,1.013,0,0,1,9.762-2.933Zm2-2.023a2.023,2.023,0,0,0,.157-.338A1.371,1.371,0,0,0,12-5.626.348.348,0,0,0,12-5.694a.351.351,0,0,0-.027-.144.419.419,0,0,0-.109-.171.5.5,0,0,0-.308-.164l-.075-.014-.021.089a1.912,1.912,0,0,1-.3.526q-.068.1-.1.154t-.038.065a.052.052,0,0,0-.007.021.028.028,0,0,0,.007.021.3.3,0,0,0,.068.075q.055.048.12.1a.6.6,0,0,0,.126.079l.133.065a1.465,1.465,0,0,0,.147.062q.068.024.082.031s.013-.006.024-.017A.246.246,0,0,0,11.758-4.956ZM10.432-3.719a1.592,1.592,0,0,0,.5-.28q.048-.041.123-.109t.147-.14q.072-.072.116-.123a.265.265,0,0,0,.044-.058.215.215,0,0,0-.051-.024q-.044-.017-.106-.044a1.7,1.7,0,0,1-.437-.253l-.1-.075-.123.2q-.116.2-.229.42a2.741,2.741,0,0,0-.147.325q-.014.041-.024.085a.326.326,0,0,0-.01.065v.055h.082a.584.584,0,0,0,.1-.01A.635.635,0,0,0,10.432-3.719Zm4.635,1.189a4.114,4.114,0,0,1,.1-.588,6.331,6.331,0,0,1,.178-.629l.024-.082a.238.238,0,0,0,.01-.041.246.246,0,0,0-.055.051q-.048.051-.116.133a5.018,5.018,0,0,1-.526.52,1.489,1.489,0,0,1-.882.369h-.068a.817.817,0,0,1-.663-.431,1.444,1.444,0,0,1-.164-.69,1.931,1.931,0,0,1,.014-.226,4.034,4.034,0,0,1,.26-1.019,4.888,4.888,0,0,1,.424-.848,1.922,1.922,0,0,1,.656-.745.576.576,0,0,1,.109-.044.633.633,0,0,1,.137-.01.633.633,0,0,1,.137.01.356.356,0,0,1,.089.038.644.644,0,0,1,.362.6.829.829,0,0,1-.007.1,1.081,1.081,0,0,1-.075.3,3.794,3.794,0,0,1-.212.42q-.15.267-.294.557t-.212.468a1.36,1.36,0,0,1-.062.144,3.7,3.7,0,0,0-.14.369.7.7,0,0,0-.031.144q0,.082.075.082h.007a1.4,1.4,0,0,0,.479-.287,5.342,5.342,0,0,0,.725-.684,10.049,10.049,0,0,0,.937-1.155,3.234,3.234,0,0,1,.608-.731.709.709,0,0,1,.383-.15.328.328,0,0,1,.116.021.4.4,0,0,1,.256.263,1.141,1.141,0,0,1,.051.3.985.985,0,0,1-.062.335A11.1,11.1,0,0,1,17.042-4.5a11.978,11.978,0,0,0-.964,2.174,1.325,1.325,0,0,0-.048.3q0,.137.068.164a.151.151,0,0,0,.048.007.982.982,0,0,0,.444-.212,3.3,3.3,0,0,0,.526-.485,7.941,7.941,0,0,0,.608-.752q.267-.362.55-.824t.783-1.33A.939.939,0,0,1,19.2-5.67a.192.192,0,0,1,.137-.051.2.2,0,0,1,.167.068.236.236,0,0,1,.051.144.348.348,0,0,1-.007.068,5.044,5.044,0,0,1-.321.629q-.273.485-.595,1A16.065,16.065,0,0,1,17.343-2.03a2.269,2.269,0,0,1-.9.728,2.068,2.068,0,0,1-.547.12.781.781,0,0,1-.533-.2,1.2,1.2,0,0,1-.308-.937Q15.06-2.42,15.066-2.529Zm1.606.82A2.436,2.436,0,0,1,17.7-2.857,6.4,6.4,0,0,1,18.888-3.4L19-3.445l-.014-.164q-.007-.068-.024-.215t-.038-.3q-.062-.513-.065-.677t0-.219a2.138,2.138,0,0,1,.034-.39A2.048,2.048,0,0,1,20-6.938a1.437,1.437,0,0,1,.629-.164.962.962,0,0,1,.424.1.56.56,0,0,1,.311.318,1.18,1.18,0,0,1,.044.27.722.722,0,0,1-.068.3.736.736,0,0,1-.349.376.317.317,0,0,1-.144.034.348.348,0,0,1-.068-.007.338.338,0,0,1-.205-.164.651.651,0,0,0-.284.369,2.151,2.151,0,0,0-.065.581q0,.082.007.243t.017.328q.01.167.021.287a.563.563,0,0,0,.017.126.871.871,0,0,0,.219-.1q.191-.1.434-.25t.407-.263q.267-.191.595-.461t.526-.461a.361.361,0,0,1,.239-.13.112.112,0,0,1,.034.007q.116.021.123.092t.007.085a.392.392,0,0,1-.109.246q-.144.157-.4.383t-.513.424a5.71,5.71,0,0,1-.612.42q-.366.222-.694.386l-.253.13v.1a4.369,4.369,0,0,1-.15.978A4.241,4.241,0,0,1,19.3-.718a1.955,1.955,0,0,1-.865.646,2.485,2.485,0,0,1-.632.113A1.441,1.441,0,0,1,17.3-.048a1.011,1.011,0,0,1-.6-.485,1.35,1.35,0,0,1-.147-.561A1.8,1.8,0,0,1,16.673-1.709Zm1.559.615a2.957,2.957,0,0,0,.752-1.641q.007-.055.01-.085t0-.041-.007-.01H18.97q-.185.075-.455.208t-.434.229A1.637,1.637,0,0,0,17.233-1.4a1.116,1.116,0,0,0-.021.205.379.379,0,0,0,.109.3.417.417,0,0,0,.273.1.624.624,0,0,0,.15-.021A1.067,1.067,0,0,0,18.231-1.094ZM22.75-2.413a.748.748,0,0,1-.14-.014.915.915,0,0,1-.113-.027,1.275,1.275,0,0,1-.752-.772,2,2,0,0,1-.109-.663,2.961,2.961,0,0,1,.226-1.08,3.956,3.956,0,0,1,.8-1.207,2.883,2.883,0,0,1,1.063-.735,1.368,1.368,0,0,1,.25-.065A1.4,1.4,0,0,1,24.192-7a.743.743,0,0,1,.475.154.632.632,0,0,1,.236.414.726.726,0,0,1,.007.1,1.642,1.642,0,0,1-.137.595,2.286,2.286,0,0,1-.738,1,1.922,1.922,0,0,1-1.169.4,2.138,2.138,0,0,0-.075.287,1.705,1.705,0,0,0-.034.335v.062q.021.39.171.438a.841.841,0,0,0,.239.048,1.053,1.053,0,0,0,.39-.089,1.522,1.522,0,0,0,.181-.092q.113-.065.215-.133a.655.655,0,0,0,.13-.1l.024-.021a.373.373,0,0,0,.031-.027,1.117,1.117,0,0,0,.14-.123q.106-.1.236-.236t.226-.236q.1-.1.212-.236t.355-.427.048-.055L25.4-5q.034-.034.116-.137t.185-.226q.1-.116.174-.208a.937.937,0,0,1,.106-.113.208.208,0,0,1,.13-.048.231.231,0,0,1,.1.027.229.229,0,0,1,.126.109.3.3,0,0,1,.024.1.243.243,0,0,1-.027.109,4.069,4.069,0,0,1-.284.393q-.236.3-.479.608a4.271,4.271,0,0,1-.318.373.491.491,0,0,1-.058.068q-.051.055-.12.123a5.525,5.525,0,0,1-1.176,1.06,2.776,2.776,0,0,1-.325.178,2.478,2.478,0,0,1-.3.123q-.171.041-.243.051a.907.907,0,0,1-.126.01A1.084,1.084,0,0,1,22.75-2.413Zm1.2-3.056a2.425,2.425,0,0,0,.15-.226.753.753,0,0,0,.089-.205,1.266,1.266,0,0,0,.027-.133q.007-.051.007-.065,0-.034-.007-.034a1.538,1.538,0,0,0-.667.489,2.3,2.3,0,0,0-.434.7.832.832,0,0,0,.472-.178A1.664,1.664,0,0,0,23.946-5.469Z" transform="translate(92.423 46.899)" fill="#ffbe00"/></g></g><path d="M1.114-.034A1.886,1.886,0,0,1,.137-.588a2.411,2.411,0,0,1-.472-.663,2.26,2.26,0,0,1-.212-.69,5.069,5.069,0,0,1-.068-.848A6.787,6.787,0,0,1-.54-3.773,7.729,7.729,0,0,1-.021-5.7,8.7,8.7,0,0,1,1.846-8.538,5.09,5.09,0,0,1,3.657-9.7a2.024,2.024,0,0,1,.314-.082A1.581,1.581,0,0,1,4.218-9.8a1.055,1.055,0,0,1,.116.007,1.382,1.382,0,0,1,.284.038,1.476,1.476,0,0,1,.263.1,1.322,1.322,0,0,1,.386.308,1.328,1.328,0,0,1,.256.424.831.831,0,0,1,.041.212q.007.109.007.171a.919.919,0,0,1-.014.164,1.8,1.8,0,0,1-.185.526.6.6,0,0,1-.253.287.225.225,0,0,1-.055.007.2.2,0,0,1-.171-.1.217.217,0,0,1-.027-.109.433.433,0,0,1,.021-.123.829.829,0,0,0,.031-.232A.925.925,0,0,0,4.9-8.354a.408.408,0,0,0-.219-.28A.718.718,0,0,0,4.416-8.7a.818.818,0,0,0-.246.041,3.417,3.417,0,0,0-.54.267,5,5,0,0,0-.581.4,5.68,5.68,0,0,0-1,1.1A9.8,9.8,0,0,0,1.36-5.715,9.217,9.217,0,0,0,.834-4.457,7.033,7.033,0,0,0,.547-3.076Q.526-2.892.523-2.7t0,.314v.239a2.252,2.252,0,0,0,.027.335A1.334,1.334,0,0,0,1.436-.8a.85.85,0,0,0,.191.021,1.8,1.8,0,0,0,.636-.144,1.782,1.782,0,0,0,.3-.157,3.885,3.885,0,0,0,.359-.273q.1-.089.191-.171t.215-.219q.126-.137.338-.383a3.521,3.521,0,0,1,.318-.328.3.3,0,0,1,.188-.082.273.273,0,0,1,.226.1.269.269,0,0,1,.041.109.725.725,0,0,1,.007.082.2.2,0,0,1-.014.075q-.027.048-.154.219T4-1.583q-.154.195-.256.311a5.752,5.752,0,0,1-.53.516,3.18,3.18,0,0,1-.5.373,4.105,4.105,0,0,1-.489.226,2.531,2.531,0,0,1-.434.13A1.809,1.809,0,0,1,1.449,0,1.457,1.457,0,0,1,1.114-.034Zm6.009-2.5a4.114,4.114,0,0,1,.1-.588A6.331,6.331,0,0,1,7.4-3.746l.024-.082a.238.238,0,0,0,.01-.041.246.246,0,0,0-.055.051q-.048.051-.116.133a5.018,5.018,0,0,1-.526.52,1.489,1.489,0,0,1-.882.369H5.783a.817.817,0,0,1-.663-.431,1.444,1.444,0,0,1-.164-.69,1.931,1.931,0,0,1,.014-.226,4.034,4.034,0,0,1,.26-1.019,4.888,4.888,0,0,1,.424-.848,1.922,1.922,0,0,1,.656-.745A.576.576,0,0,1,6.419-6.8a.633.633,0,0,1,.137-.01.633.633,0,0,1,.137.01.356.356,0,0,1,.089.038.644.644,0,0,1,.362.6.829.829,0,0,1-.007.1,1.081,1.081,0,0,1-.075.3,3.794,3.794,0,0,1-.212.42q-.15.267-.294.557t-.212.468a1.36,1.36,0,0,1-.062.144,3.7,3.7,0,0,0-.14.369.7.7,0,0,0-.031.144q0,.082.075.082h.007a1.4,1.4,0,0,0,.479-.287A5.342,5.342,0,0,0,7.4-4.539a10.05,10.05,0,0,0,.937-1.155,3.234,3.234,0,0,1,.608-.731.709.709,0,0,1,.383-.15.328.328,0,0,1,.116.021.4.4,0,0,1,.256.263,1.141,1.141,0,0,1,.051.3.985.985,0,0,1-.062.335A11.1,11.1,0,0,1,9.1-4.5a11.978,11.978,0,0,0-.964,2.174,1.325,1.325,0,0,0-.048.3q0,.137.068.164a.151.151,0,0,0,.048.007.982.982,0,0,0,.444-.212,3.3,3.3,0,0,0,.526-.485A7.941,7.941,0,0,0,9.782-3.3q.267-.362.55-.824t.783-1.33a.939.939,0,0,1,.144-.215.192.192,0,0,1,.137-.051.2.2,0,0,1,.167.068.236.236,0,0,1,.051.144.348.348,0,0,1-.007.068,5.044,5.044,0,0,1-.321.629q-.273.485-.595,1A16.065,16.065,0,0,1,9.4-2.03a2.269,2.269,0,0,1-.9.728,2.068,2.068,0,0,1-.547.12.781.781,0,0,1-.533-.2,1.2,1.2,0,0,1-.308-.937Q7.116-2.42,7.123-2.529Zm4.348,1.8a1.045,1.045,0,0,1-.608-1.1q0-.089.007-.185a4.585,4.585,0,0,1,.253-1.073,5.98,5.98,0,0,1,.82-1.49l.089-.116-.1-.034a1.561,1.561,0,0,1-.55-.407A1.954,1.954,0,0,1,11-5.77a2,2,0,0,1-.1-.42q-.021-.195-.021-.3a1.753,1.753,0,0,1,.021-.273,1.993,1.993,0,0,1,.325-.813,1.4,1.4,0,0,1,.6-.513.642.642,0,0,1,.232-.048.433.433,0,0,1,.219.055q.191.1.208.232t.017.15a.752.752,0,0,1-.2.458,2.891,2.891,0,0,0-.2.256,2.387,2.387,0,0,0-.133.222,1.666,1.666,0,0,0-.191.711v.082a.786.786,0,0,0,.424.7.507.507,0,0,0,.154.051q.092.017.291.038a1.257,1.257,0,0,1,.147.017.268.268,0,0,1,.085.031.552.552,0,0,1,.246.492.957.957,0,0,1-.027.219,1.705,1.705,0,0,1-.106.284q-.072.154-.236.461a9.641,9.641,0,0,0-.807,1.846,1.129,1.129,0,0,0-.041.253q0,.109.055.109.089,0,.308-.226a20.622,20.622,0,0,0,1.48-1.712q.7-.906,1.254-1.685l.137-.191q.137-.178.253-.181t.15.065a.271.271,0,0,1,.034.116.3.3,0,0,1-.048.15,24.393,24.393,0,0,1-1.562,2.328,15.913,15.913,0,0,1-1.193,1.432,2.438,2.438,0,0,1-.813.622.7.7,0,0,1-.195.044l-.106,0A.648.648,0,0,1,11.471-.731Zm3.965,0a1.045,1.045,0,0,1-.608-1.1q0-.089.007-.185a4.585,4.585,0,0,1,.253-1.073,5.98,5.98,0,0,1,.82-1.49L16-4.7l-.1-.034a1.561,1.561,0,0,1-.55-.407,1.954,1.954,0,0,1-.386-.632,2,2,0,0,1-.1-.42q-.021-.195-.021-.3a1.753,1.753,0,0,1,.021-.273,1.993,1.993,0,0,1,.325-.813,1.4,1.4,0,0,1,.6-.513.642.642,0,0,1,.232-.048.433.433,0,0,1,.219.055q.191.1.208.232t.017.15a.752.752,0,0,1-.2.458,2.891,2.891,0,0,0-.2.256,2.387,2.387,0,0,0-.133.222,1.666,1.666,0,0,0-.191.711v.082a.786.786,0,0,0,.424.7.507.507,0,0,0,.154.051q.092.017.291.038a1.257,1.257,0,0,1,.147.017.268.268,0,0,1,.085.031.552.552,0,0,1,.246.492.957.957,0,0,1-.027.219,1.705,1.705,0,0,1-.106.284q-.072.154-.236.461a9.641,9.641,0,0,0-.807,1.846,1.129,1.129,0,0,0-.041.253q0,.109.055.109.089,0,.308-.226a20.622,20.622,0,0,0,1.48-1.712q.7-.906,1.254-1.685l.137-.191q.137-.178.253-.181t.15.065a.271.271,0,0,1,.034.116.3.3,0,0,1-.048.15,24.393,24.393,0,0,1-1.562,2.328,15.913,15.913,0,0,1-1.193,1.432,2.438,2.438,0,0,1-.813.622.7.7,0,0,1-.195.044l-.106,0A.648.648,0,0,1,15.436-.731Zm.7-.362a2.6,2.6,0,0,1,.622-.417,2.853,2.853,0,0,1,.537-.212,7.644,7.644,0,0,1,.776-.157q.649-.109,1.083-.212a7.646,7.646,0,0,0,.865-.26l.171-.062q.021-.041.041-.089.239-.554.465-1.114.062-.157.147-.386t.167-.455q.082-.226.137-.383T21.2-5a.277.277,0,0,0-.055.065l-.116.161a5.779,5.779,0,0,1-1.634,1.764.812.812,0,0,1-.191.072.836.836,0,0,1-.171.017H18.97a.625.625,0,0,1-.516-.3,1.206,1.206,0,0,1-.167-.643q0-.082.007-.171a5.58,5.58,0,0,1,.854-2.215,1.6,1.6,0,0,1,.185-.277.71.71,0,0,1,.178-.147.737.737,0,0,1,.1-.038.54.54,0,0,1,.126-.01.516.516,0,0,1,.188.031.4.4,0,0,1,.147.106.467.467,0,0,1,.137.355.7.7,0,0,1-.051.26,3.521,3.521,0,0,1-.208.4,7.1,7.1,0,0,0-.656,1.565,1.077,1.077,0,0,0-.041.185q-.007.068-.007.1t.007.021a.278.278,0,0,0,.092-.041q.072-.041.157-.1t.147-.106a5.083,5.083,0,0,0,.482-.455,7.447,7.447,0,0,0,.537-.632q.144-.185.27-.359t.332-.475l.219-.321a1.511,1.511,0,0,1,.116-.154.36.36,0,0,1,.075-.065.328.328,0,0,1,.133-.031.269.269,0,0,1,.133.024.455.455,0,0,1,.212.321,1.3,1.3,0,0,1,.021.26v.089a3.032,3.032,0,0,1-.048.451,8.343,8.343,0,0,1-.191.844q-.137.5-.3,1.022-.048.13-.072.208a.577.577,0,0,0-.024.092v.007l.055-.041q.048-.041.123-.1a.107.107,0,0,1,.027-.021q.089-.075.229-.205t.27-.26a8.27,8.27,0,0,0,1.142-1.436q.3-.417.451-.417a.084.084,0,0,1,.048.014.128.128,0,0,1,.062.123.92.92,0,0,1-.137.383,9.579,9.579,0,0,1-.837,1.145,7.552,7.552,0,0,1-.988.995q-.116.089-.3.222t-.335.236a.221.221,0,0,0-.055.044.342.342,0,0,0-.044.075q-.024.051-.065.147a12.882,12.882,0,0,1-1,1.982,6.077,6.077,0,0,1-2.105,2.105,2.69,2.69,0,0,1-1.2.349,1.312,1.312,0,0,1-.355-.048,1.327,1.327,0,0,1-.892-.646,2.009,2.009,0,0,1-.25-.94,2.411,2.411,0,0,1,.034-.4A2.367,2.367,0,0,1,16.133-1.094ZM17.78,1.025a5.16,5.16,0,0,0,.848-.834,9.1,9.1,0,0,0,.807-1.155q.089-.15.191-.335t.178-.328q.075-.144.075-.15h-.007a.224.224,0,0,0-.055.014,1.343,1.343,0,0,0-.13.041,12.619,12.619,0,0,1-1.572.4q-.437.082-.656.147A2.691,2.691,0,0,0,17.021-1a2.111,2.111,0,0,0-.554.383A1.633,1.633,0,0,0,16,.12a2.754,2.754,0,0,0-.062.455,1.108,1.108,0,0,0,.123.526q.191.349.42.362l.243.014A1.931,1.931,0,0,0,17.78,1.025Z" transform="translate(17443.176 2796)" fill="#fe4f60"/></g></svg>