<svg xmlns="http://www.w3.org/2000/svg" width="140.471" height="49.899" viewBox="0 0 140.471 49.899"><g transform="translate(0)"><text transform="translate(1.77 12)" fill="#11ac6a" font-size="12" font-family="Nunito-Bold, Nunito" font-weight="700"><tspan x="0" y="0">The</tspan></text><text transform="translate(0 36.435)" fill="#1c1c1c" font-size="33" font-family="Nunito-ExtraBold, Nunito" font-weight="800"><tspan x="0" y="0">CE</tspan></text><text transform="translate(71.47 37.899)" fill="#1c1c1c" font-size="33" font-family="Nunito-ExtraBold, Nunito" font-weight="800"><tspan x="0" y="0">LON</tspan></text><g transform="translate(47.978 10.962)"><path d="M15.982,16.906H6.453a.953.953,0,1,1,0-1.906h9.529a.953.953,0,1,1,0,1.906Z" transform="translate(1.167 13.586)" fill="#1c1c1c"/><path d="M26.679,2.539A.951.951,0,0,0,25.822,2H2.951a.957.957,0,0,0-.745,1.548L13.434,17.582V27.729a.953.953,0,1,0,1.906,0V17.582L26.567,3.549a.953.953,0,0,0,.112-1.01Z" transform="translate(-2.002 1.81)" fill="#1c1c1c"/><path d="M4.341,4l7.927,9.909L20.2,4Z" transform="translate(0.117 3.621)" fill="#fe4f60"/><path d="M14.615,1.428,13.262,3.811H11.07L12.976.475a.936.936,0,0,1,1.3-.343.936.936,0,0,1,.343,1.3Z" transform="translate(6.213 -0.001)" fill="#676767"/><path d="M14.587,2l-3.2,5.641a.943.943,0,0,1-1.3.343.959.959,0,0,1-.362-1.3L12.4,2h2.192Z" transform="translate(4.887 1.81)" fill="#2e2e2e"/><ellipse cx="2.884" cy="2.884" rx="2.884" ry="2.884" transform="translate(11.409 7.623)" fill="#11ac6a"/></g><text transform="translate(72.423 46.46)" fill="#fe4f60" font-size="14" font-family="Florania"><tspan x="0" y="0">Curry</tspan><tspan y="0" xml:space="preserve" fill="#ffbe00"> House</tspan></text></g></svg>