<svg xmlns="http://www.w3.org/2000/svg" width="32" height="32" viewBox="0 0 32 32"><path d="M32,16A16,16,0,1,1,16,0,16,16,0,0,1,32,16Z" fill="#239fdb"/><path d="M16.673,9.865h0L11.511,11.81h-.075a.073.073,0,0,0-.075.075.318.318,0,0,0,.224.524h6.509a.66.66,0,0,1,.673.6.763.763,0,0,1-.374.6.36.36,0,0,0-.15.449v5.312c0,.075-.075.224-.15.224H16.449a.3.3,0,0,0,0,.6h1.646a.275.275,0,0,0,.224-.075l5.312-1.87c.15-.075.374-.15.524-.224a.924.924,0,0,0,.3-.6V12.184c0-.075-.075-.15-.075-.224a1.078,1.078,0,0,0,.6-.973,1.2,1.2,0,0,0-1.272-1.2H16.673v.075h0ZM8.145,13.007a.073.073,0,0,0-.075.075h0A1.181,1.181,0,0,0,7.92,15.4v5.91a.91.91,0,0,0,.9.9h6.434a.864.864,0,0,0,.9-.9V15.476c0-.075-.075-.15-.075-.224a1.168,1.168,0,0,0,.524-.973,1.261,1.261,0,0,0-1.272-1.272H8.145Z" fill="#fff"/></svg>