<svg xmlns="http://www.w3.org/2000/svg" width="32" height="32" viewBox="0 0 32 32"><path d="M32,16A16,16,0,1,1,16,0,16,16,0,0,1,32,16Z" fill="#e64c65"/><path d="M32,16A16,16,0,1,1,16,0,16,16,0,0,1,32,16Z" fill="#e64c65"/><path d="M17.84,7.01a5.2,5.2,0,0,0-2.191.529l3.1,3.022,2.342-2.417A5.125,5.125,0,0,0,17.84,7.01Zm-2.719.831a4.955,4.955,0,0,0-1.964,2.493l2.871,2.946,2.266-2.266L15.12,7.841h0Zm6.421.831L19.2,11.09l2.72,2.644.982-.982h0v-.529h0v-.076a5.116,5.116,0,0,0-1.36-3.475h0ZM13.005,11.09a2.57,2.57,0,0,0-.076.755v1.737a1.015,1.015,0,0,0-.529-.453,1.778,1.778,0,0,0-.982-.378,2.7,2.7,0,0,0-2.266.6l3.626,3.626,2.871-2.946L13.005,11.09h0Zm5.817.378-2.266,2.266L19.2,16.378l2.342-2.342-2.72-2.568h0ZM8.7,13.658a.074.074,0,0,1-.076.076,2.666,2.666,0,0,0,.529,3.475h.076L10.739,18.8l1.586-1.586L8.7,13.658h0Zm14.126,0-.453.529.453.529V13.658h0Zm-6.723.6-2.871,2.946,2.644,2.568,2.871-2.871L16.1,14.263h0Zm5.817.3-2.342,2.342,3.173,3.248.076-4.684-.907-.907h0Zm-2.8,2.871-2.871,2.871,1.662,1.586H19.2v2.8a.325.325,0,0,0,.3.3h2.266a.325.325,0,0,0,.3-.3v-2.8h.378a.325.325,0,0,0,.3-.3v-.529l-3.626-3.626h0Zm-6.346.3-1.586,1.586,2.417,2.568a.074.074,0,0,1,.076.076h0l1.586-1.586-2.493-2.644Zm3.1,3.022-1.209,1.209h2.417l-1.209-1.209h0Z" fill="#fff"/></svg>