<svg xmlns="http://www.w3.org/2000/svg" width="32" height="32" viewBox="0 0 32 32"><path d="M32,16A16,16,0,1,1,16,0,16,16,0,0,1,32,16Z" fill="#f37a5d"/><path d="M21.493,8.6a.682.682,0,0,0-.526.225.789.789,0,0,0-.376.676,2.629,2.629,0,0,1-.676,1.728,3,3,0,0,1-1.427.826,6.259,6.259,0,0,1-1.127.3h-.15a.953.953,0,0,1-.451.075,3.388,3.388,0,0,0-2.254,1.427,2.5,2.5,0,0,0,.075,2.4c.075.15.075.376-.075.451s-.376.075-.451-.075a2.9,2.9,0,0,1-.15-3.005,2.994,2.994,0,0,1,1.427-1.277h-.6c-.526.075-.826.15-.9.15-1.953.526-3.907,2.179-4.132,4.132a7.826,7.826,0,0,0,0,1.878,3.178,3.178,0,0,0,.6,1.728,2.539,2.539,0,0,0,1.427.676A11.632,11.632,0,0,0,13.3,21h6.912a2.512,2.512,0,0,0,1.728-1.052,3.882,3.882,0,0,0,.676-2.329,4.121,4.121,0,0,0-.676-2.4,1.754,1.754,0,0,0-.9-.751c-.15.526-.3,1.127-.376,1.5-.075.451-.15.676-.15.751a2.911,2.911,0,0,1-2.855,2.254,3.01,3.01,0,0,1-1.728-.6c-.225-.225.15-.676.376-.526a2.164,2.164,0,0,0,3.456-1.352s.075-.3.15-.751a8.653,8.653,0,0,1,.451-1.578v-.15a4.838,4.838,0,0,1,.826-1.5,1.183,1.183,0,0,1,.977-.526,1.465,1.465,0,0,0,.6.075,1.049,1.049,0,0,0,.676-.225,1.089,1.089,0,0,0,.075-1.578,1.386,1.386,0,0,0-.9-.376c0-.075.075-.075.075-.15a1.126,1.126,0,0,0-1.127-1.2c.075.075,0,.075-.075.075h0ZM8.421,21.672a.287.287,0,0,0-.225.376,6.508,6.508,0,0,1,.15.751,1.432,1.432,0,0,0,.977.676H22.7a1.163,1.163,0,0,0,.826-.6,1.906,1.906,0,0,0,.15-.9.323.323,0,0,0-.3-.3H8.421Z" fill="#fff"/></svg>