<svg xmlns="http://www.w3.org/2000/svg" width="32" height="32" viewBox="0 0 32 32"><g transform="translate(-0.494 -0.016)"><path d="M32.493,16.015a16,16,0,1,1-16-16,16,16,0,0,1,16,16Z" fill="#239fdb"/><path d="M16.581,6.015a10,10,0,1,0,0,20,9.871,9.871,0,0,0,9.868-9.956A9.946,9.946,0,0,0,16.581,6.015h0Zm-.7,2.026a.367.367,0,0,1,0,.7A3.389,3.389,0,0,0,13.321,9.8a.415.415,0,0,1-.529.088.332.332,0,0,1,.088-.529,3.977,3.977,0,0,1,3-1.322h0Zm1.586.176h0a6.027,6.027,0,0,1,5.727,3.877.335.335,0,1,1-.617.264A5.463,5.463,0,0,0,17.55,8.923a.45.45,0,0,1-.441-.352.379.379,0,0,1,.352-.352h0Zm-4.934,4.846h8.018a2.109,2.109,0,0,1,2.115,2.2V17.91a2.222,2.222,0,0,1-2.115,2.2H12.616a2.181,2.181,0,0,1-2.2-2.2V15.266a2.164,2.164,0,0,1,2.115-2.2h0Zm0,.7a1.414,1.414,0,0,0-1.41,1.5v.969h1.41V13.769h0Zm.7,0v2.467h1.762V13.769H13.233Zm2.467,0v2.467h1.762V13.769H15.7Zm2.467,0v2.467h1.762V13.769H18.167Zm2.379,0v2.467h1.41v-.969a1.528,1.528,0,0,0-1.41-1.5h0ZM11.118,16.94v.969a1.528,1.528,0,0,0,1.41,1.5V16.94h-1.41Zm2.115,0v2.379h1.762V16.94H13.233Zm2.467,0v2.379h1.762V16.94H15.7Zm2.467,0v2.379h1.762V16.94H18.167Zm2.379,0v2.379a1.528,1.528,0,0,0,1.41-1.5V16.94h-1.41Z" fill="#fff"/></g></svg>