<svg xmlns="http://www.w3.org/2000/svg" width="32" height="32" viewBox="0 0 32 32"><g transform="translate(-1.256 -0.27)"><path d="M33.256,16.27a16,16,0,1,1-16-16,16,16,0,0,1,16,16Z" fill="#3a6c87"/><path d="M17.256,6.269a10.109,10.109,0,0,0-9.427,6.7l3.524,2.555.441-.617c.088-.088.088-.088.176-.088.264-.088.617.264.441.529l-.441.7.352.264.088-.088a1.22,1.22,0,0,1,1.5-.264,1.1,1.1,0,0,1,.264,1.5l-.088.088.352.264.441-.617c.088-.088.176-.176.264-.176a.389.389,0,0,1,.264.617l-.441.617.352.264.088-.088a1.117,1.117,0,0,1,1.5-.264,1.1,1.1,0,0,1,.264,1.5l-.088.088.441.352.529-.7c.088-.088.088-.088.176-.088.264-.088.617.352.441.529l-.529.7.617.441c.264.264-.088.793-.441.617l-.617-.441-.529.7a.332.332,0,0,1-.529.088.353.353,0,0,1-.176-.529l.529-.7-.441-.352-.088.176a1.1,1.1,0,0,1-1.5.264,1.089,1.089,0,0,1-.176-1.5l.088-.176-.352-.264L14,19.662c-.088.176-.352.176-.529.088s-.176-.352-.088-.529l.529-.793-.352-.264-.088.088a1.1,1.1,0,0,1-1.5.264,1.22,1.22,0,0,1-.264-1.5l.088-.176-.352-.264-.529.793a.424.424,0,0,1-.529.176.415.415,0,0,1-.088-.529l.529-.793L7.476,13.758c0,.881-.176,1.674-.176,2.555A10.021,10.021,0,0,0,17.344,26.27a9.871,9.871,0,0,0,9.868-9.956A9.964,9.964,0,0,0,17.256,6.269h0Zm-.7,2.026a.367.367,0,0,1,0,.7A3.925,3.925,0,0,0,14,10.058c-.264.264-.793-.264-.529-.529A4.4,4.4,0,0,1,16.551,8.3h0Zm1.586.176h0A6.093,6.093,0,0,1,24.3,14.111a.352.352,0,1,1-.7,0,5.333,5.333,0,0,0-5.463-4.934.367.367,0,0,1,0-.7h0Zm-4.67,3.26a.324.324,0,0,1,.264.088l.793.529.088-.088a1.1,1.1,0,0,1,1.5-.264,1.117,1.117,0,0,1,.264,1.5l-.088.176.617.441.529-.7c0-.088.088-.088.176-.088.264-.088.617.352.352.529l-.7.529.529.352.176-.176a1.075,1.075,0,0,1,1.762,1.233l-.088.176.7.529.529-.7c.088-.088.088-.176.264-.176.264-.088.529.352.352.617l-.529.7.529.352.088-.176a1.117,1.117,0,0,1,1.5-.264,1.2,1.2,0,0,1,.264,1.5l-.088.176.441.352.441-.7c.088-.088.176-.176.264-.176a.389.389,0,0,1,.264.617l-.352.617.264.176a.332.332,0,0,1,.088.529c-.088.176-.352.176-.529.088l-.352-.176-.529.7a.424.424,0,0,1-.529.176.415.415,0,0,1-.088-.529l.529-.793-.441-.352-.088.088a1.01,1.01,0,0,1-1.41.264,1.1,1.1,0,0,1-.264-1.5l.088-.088-.529-.352-.529.7a.424.424,0,0,1-.529.176.415.415,0,0,1-.088-.529l.529-.7-.7-.529v.088a1.117,1.117,0,0,1-1.5.264,1.1,1.1,0,0,1-.264-1.5v-.088l-.529-.352-.529.7c-.264.264-.793-.088-.617-.441l.529-.7-.617-.441-.088.176a1.2,1.2,0,0,1-1.5.264,1.1,1.1,0,0,1-.264-1.5l.088-.088-.793-.529c-.264-.176-.176-.617.088-.617a.682.682,0,0,1,.264-.088h0Z" fill="#fff"/></g></svg>