<svg xmlns="http://www.w3.org/2000/svg" width="32" height="32" viewBox="0 0 32 32"><g transform="translate(0.27 0.239)"><path d="M31.73,15.761a16,16,0,1,1-16-16,16,16,0,0,1,16,16Z" fill="#239fdb"/><path d="M15.555,6.829a.692.692,0,0,0-.7.7v2.895a.692.692,0,0,0,.7.7.646.646,0,0,0,.7-.7V7.53a.692.692,0,0,0-.7-.7h0Zm3.6,1.053a.6.6,0,0,0-.614.614v2.018a.614.614,0,0,0,1.228,0V8.583a.626.626,0,0,0-.614-.7h0Zm-7.105.789a.678.678,0,0,0-.7.614v1.228a.614.614,0,0,0,1.228,0V9.285a.494.494,0,0,0-.526-.614h0ZM8.011,12.706c-.175,0-.263.175-.263.351v.351H6.081a.351.351,0,1,0,0,.7H7.836a8.287,8.287,0,0,0,5.614,6.754l-2.368,3.246c-.088.175-.088.439.088.526a.413.413,0,0,0,.526-.088l2.456-3.421a10.747,10.747,0,0,0,1.667.175,7.546,7.546,0,0,0,1.4-.088l2.456,3.333c.088.175.351.175.526.088s.175-.351.088-.526l-2.281-3.07A8.325,8.325,0,0,0,23.888,14.2H25.38a.351.351,0,1,0,0-.7H23.8v-.351a.377.377,0,0,0-.351-.351H8.011v-.088h0Z" fill="#fff"/></g></svg>