<svg xmlns="http://www.w3.org/2000/svg" width="32" height="32" viewBox="0 0 32 32"><path d="M32,16A16,16,0,1,1,16,0,16,16,0,0,1,32,16Z" fill="#5dc560"/><path d="M11.008,9.021c-.242,0-.323.161-.323.4a.308.308,0,0,0,.4.242.484.484,0,0,1,0,.968h-.081a1.154,1.154,0,0,0-1.13,1.13,1.1,1.1,0,0,0,1.13,1.13h0a.452.452,0,0,1,.4.484.521.521,0,0,1-.484.484.323.323,0,1,0,0,.645,1.13,1.13,0,1,0,0-2.259h-.081a.484.484,0,1,1,0-.968h.081a1.13,1.13,0,1,0,0-2.259h.081Zm3.066,0a.308.308,0,0,0-.242.4.369.369,0,0,0,.4.323.521.521,0,0,1,.484.484.452.452,0,0,1-.4.484h-.161a1.215,1.215,0,0,0-1.13,1.13,1.1,1.1,0,0,0,1.13,1.13h0a.484.484,0,1,1,0,.968.323.323,0,1,0,0,.645,1.13,1.13,0,0,0,0-2.259h-.081a.484.484,0,1,1,0-.968h.161a1.13,1.13,0,1,0,0-2.259.25.25,0,0,0-.161-.081h0Zm3.227,0a.308.308,0,0,0-.242.4.369.369,0,0,0,.4.323.484.484,0,0,1,0,.968h-.081a1.215,1.215,0,0,0-1.13,1.13,1.1,1.1,0,0,0,1.13,1.13h0a.484.484,0,0,1,0,.968.323.323,0,1,0,0,.645,1.13,1.13,0,0,0,0-2.259H17.3a.484.484,0,0,1,0-.968h.161a1.13,1.13,0,0,0,0-2.259.25.25,0,0,0-.161-.081h0Zm6.455.565a1.4,1.4,0,0,0-1.21.888,3.619,3.619,0,0,0-.4,1.533,1.77,1.77,0,0,0,1.291,1.775c-.645,2.017-.484,4.357-.645,6.455v.081a.971.971,0,1,0,1.936,0v-.081c-.161-2.1.081-4.2-.645-6.455a1.77,1.77,0,0,0,1.291-1.775,3.619,3.619,0,0,0-.4-1.533,1.4,1.4,0,0,0-1.21-.888h0ZM6.893,15.314a.308.308,0,0,0-.242.4,7.939,7.939,0,0,0,4.518,5.244v1.694a.347.347,0,0,0,.323.323H17.3a.347.347,0,0,0,.323-.323V20.962a8.068,8.068,0,0,0,4.438-5.244c.081-.161-.081-.4-.323-.4H6.893Z" fill="#fff"/></svg>