<svg xmlns="http://www.w3.org/2000/svg" width="32" height="32" viewBox="0 0 32 32"><g transform="translate(-7.881 14.408)"><path d="M39.881,1.592a16,16,0,1,1-16-16,16,16,0,0,1,16,16Z" fill="#24c4bc"/><path d="M17.841-5.272a1.091,1.091,0,0,0-.748.34,2.965,2.965,0,0,0-.544.68,3.95,3.95,0,0,0-.612,1.7,2.527,2.527,0,0,0,.34,1.563,1.836,1.836,0,0,0,1.155.68V2.815c-.068,0-.068.068-.136.068a.411.411,0,0,0-.2.408c0,1.563-.2,2.718-.2,4.418a.839.839,0,0,0,.272.544.827.827,0,0,0,1.087,0,.688.688,0,0,0,.272-.476c0-1.427-.136-3.058-.136-4.418a.581.581,0,0,0-.2-.408c-.068-.068-.068-.068-.2-.068V-.243A1.771,1.771,0,0,0,19.2-.855a2.291,2.291,0,0,0,.34-1.155h0v-.136h0a3.527,3.527,0,0,0-.476-1.835,1.573,1.573,0,0,0-.476-.951,1.091,1.091,0,0,0-.748-.34h0ZM30.753-3.845h0c-.2.068-.272.136-.272.272V-.855a.374.374,0,0,1-.2-.34V-3.1a.274.274,0,0,0-.34-.272c-.136,0-.2.136-.2.272v1.971a1.019,1.019,0,0,0,.748.951V2.747c-.068,0-.068.068-.136.068-.136.068-.2.2-.2.476,0,1.563-.136,2.718-.136,4.418a.839.839,0,0,0,.272.544.772.772,0,0,0,.544.2.617.617,0,0,0,.476-.2.706.706,0,0,0,.272-.544c0-1.427-.136-3.058-.136-4.418a1.015,1.015,0,0,0-.2-.476c-.068-.068-.068-.068-.136-.068V-.175a1.019,1.019,0,0,0,.748-.951V-3.1a.292.292,0,0,0-.272-.272A.292.292,0,0,0,31.3-3.1v1.971a.374.374,0,0,1-.2.34V-3.505c-.068-.2-.2-.34-.34-.34h0ZM24.229-2.69a4.076,4.076,0,0,0-4.078,4.01,4.078,4.078,0,0,0,8.155,0,4.076,4.076,0,0,0-4.078-4.01h0Zm0,.544A3.481,3.481,0,0,1,27.7,1.32a3.481,3.481,0,0,1-3.466,3.466A3.54,3.54,0,0,1,20.695,1.32a3.585,3.585,0,0,1,3.534-3.466Zm0,.816a2.651,2.651,0,0,0,0,5.3A2.713,2.713,0,0,0,26.947,1.32,2.713,2.713,0,0,0,24.229-1.33h0Z" fill="#fff"/></g></svg>