<svg xmlns="http://www.w3.org/2000/svg" width="32" height="32" viewBox="0 0 32 32"><path d="M32,16A16,16,0,1,1,16,0,16,16,0,0,1,32,16Z" fill="#e64c65"/><path d="M16.188,10.82a1.351,1.351,0,0,0-1.357,1.357,1.134,1.134,0,0,0,.3.829A6.988,6.988,0,0,0,9.1,19.94a1.66,1.66,0,0,0,.075.6H7.144a.3.3,0,1,0,0,.6H9.4c5.125,0,12.512.075,15.451,0a.3.3,0,0,0,0-.6H23.349c0-.226.075-.452.075-.678a7.189,7.189,0,0,0-6.105-7.01,1.581,1.581,0,0,0,.3-.829,1.542,1.542,0,0,0-1.432-1.206h0Zm2.94,4.824H19.2a2.121,2.121,0,0,1,1.734,1.507.311.311,0,1,1-.6.151,1.644,1.644,0,0,0-1.281-1.131c-.226.075-.226-.452.075-.528h0Z" fill="#fff"/></svg>