<svg xmlns="http://www.w3.org/2000/svg" width="32" height="32" viewBox="0 0 32 32"><path d="M32,16A16,16,0,1,1,16,0,16,16,0,0,1,32,16Z" fill="#24c4bc"/><path d="M14.01,7.58a.292.292,0,0,0-.23.383.268.268,0,0,0,.383.23.153.153,0,1,1,0,.306H14.01a.814.814,0,0,0-.689.765.823.823,0,0,0,.765.765h.077a.153.153,0,1,1,0,.306c-.153-.077-.383.077-.383.306,0,.153.23.306.383.306a.767.767,0,0,0,.765-.765.814.814,0,0,0-.689-.765h-.153a.153.153,0,0,1,0-.306h.077a.823.823,0,0,0,.765-.765.767.767,0,0,0-.765-.765H14.01Zm1.761,0a.316.316,0,1,0,.153.612.165.165,0,0,1,.153.153c0,.077-.153.153-.23.153H15.77a.814.814,0,0,0-.689.765.823.823,0,0,0,.765.765h0a.153.153,0,1,1,0,.306c-.153-.077-.383.077-.383.306,0,.153.23.306.383.306a.723.723,0,0,0,.765-.765.814.814,0,0,0-.689-.765H15.77a.153.153,0,1,1,0-.306h0a.765.765,0,1,0,0-1.531h0Zm1.914,0a.292.292,0,0,0-.23.383c.077.153.23.306.383.23a.153.153,0,1,1,0,.306h-.077a.814.814,0,0,0-.689.765.823.823,0,0,0,.765.765h.077a.153.153,0,0,1,0,.306c-.23-.077-.383.077-.383.306,0,.153.23.306.383.306a.767.767,0,0,0,.765-.765.814.814,0,0,0-.689-.765h-.153a.165.165,0,0,1-.153-.153c-.153-.077,0-.153,0-.153h0a.823.823,0,0,0,.765-.765.767.767,0,0,0-.765-.765h0ZM14.01,11.867c-.153,0-.23.153-.23.306v.612H10.412a1.942,1.942,0,0,0-1.761.919,2.943,2.943,0,0,0-.383,1.607.329.329,0,0,0,.306.306h14.85a.329.329,0,0,0,.306-.306A4.09,4.09,0,0,0,23.5,13.7a1.616,1.616,0,0,0-1.607-.919H18.143v-.612a.329.329,0,0,0-.306-.306H14.01ZM7.657,16a1.225,1.225,0,1,0,0,2.449,1.442,1.442,0,0,0,.612-.153v3.674a2.437,2.437,0,0,0,2.526,2.449h10.41a2.548,2.548,0,0,0,2.526-2.526V18.3a1.442,1.442,0,0,0,.612.153,1.225,1.225,0,1,0,0-2.449,1.234,1.234,0,0,0-1,.459H8.575A1.511,1.511,0,0,0,7.657,16h0Z" fill="#fff"/></svg>