<svg xmlns="http://www.w3.org/2000/svg" width="32" height="32" viewBox="0 0 32 32"><path d="M32,16A16,16,0,1,1,16,0,16,16,0,0,1,32,16Z" fill="#5dc560"/><path d="M16.146,10.286A5.714,5.714,0,1,0,21.934,16a5.737,5.737,0,0,0-5.787-5.714Zm-8.79.44c-.147,0-.22.147-.22.293v5.274H9.48V11.019a.315.315,0,0,0-.293-.293H7.356Zm15.457,0c-.147,0-.22.147-.22.293v2.93a.327.327,0,0,0,.22.293v6.52a.315.315,0,0,0,.293.293h1.172a.315.315,0,0,0,.293-.293v-6.52a.315.315,0,0,0,.293-.293v-2.93a.315.315,0,0,0-.293-.293H22.813ZM13.8,12.557h0c.293,0,.366.44.147.586a3.578,3.578,0,0,0-1.538,2.93,3.673,3.673,0,0,0,3.663,3.663c.293,0,.293.586,0,.586a4.252,4.252,0,0,1-4.249-4.249,4,4,0,0,1,1.758-3.37c.073-.147.073-.147.22-.147h0Zm5.934,3h.073c.147,0,.293.073.293.22a2.973,2.973,0,0,1-2.124,3.663c-.073,0-.147.073-.22.073a.3.3,0,0,1-.147-.586h.147A2.466,2.466,0,0,0,19.516,16a.443.443,0,0,1,.22-.44h0Zm-12.6,1.319v4.175a.315.315,0,0,0,.293.293H9.187a.315.315,0,0,0,.293-.293V16.879H7.136Z" fill="#fff"/></svg>