<svg xmlns="http://www.w3.org/2000/svg" width="32" height="32" viewBox="0 0 32 32"><path d="M32,16A16,16,0,1,1,16,0,16,16,0,0,1,32,16Z" fill="#ffcc0f"/><path d="M8.431,7.482c-.077-.077-.154,0-.232.077h0c-.154-.077-.232-.077-.309,0a.735.735,0,0,0-.232,1l4.325,6.565H7.736c-.077,0-.232.077-.232.154v.077a.239.239,0,0,1,.154.077H7.427v.077h0A8.79,8.79,0,0,0,13.3,23.7v.541a.332.332,0,0,0,.309.309h4.711a.332.332,0,0,0,.309-.309v-.463a8.778,8.778,0,0,0,5.947-8.264v-.077a.332.332,0,0,0-.309-.309h-11.2c-.077-.077-.077-.232-.154-.309L8.895,7.791c-.154-.154-.309-.309-.463-.309Zm-.154.541h0l1.776,3.012L8.122,8.177c0-.077,0-.077.154-.154h0Z" fill="#fff"/></svg>