<svg xmlns="http://www.w3.org/2000/svg" width="32" height="32" viewBox="0 0 32 32"><g transform="translate(-9.9 9.9)"><path d="M41.9,6.1a16,16,0,1,1-16-16,16,16,0,0,1,16,16h0Z" fill="#ffcc0f"/><path d="M25.854-3.9a9.939,9.939,0,0,0-9.907,10,9.954,9.954,0,1,0,19.907.093,9.979,9.979,0,0,0-10-10.093Zm-.741,1.944a.4.4,0,0,1,.37.37.4.4,0,0,1-.37.37A3.656,3.656,0,0,0,22.52-.1c-.093.185-.37.185-.556.093a.418.418,0,0,1,0-.556,4.446,4.446,0,0,1,3.148-1.389h0Zm1.574.185h.185a6.238,6.238,0,0,1,6.2,5.648.4.4,0,0,1-.37.37.473.473,0,0,1-.463-.37,5.436,5.436,0,0,0-5.37-5c-.185.093-.37-.093-.463-.278-.093-.093.093-.278.278-.37h0ZM22.15.637h0a.481.481,0,0,1,.37.185l1.2,1.759.093-.093a1.045,1.045,0,0,1,.741-.093,1.493,1.493,0,0,1,.833.278,44.282,44.282,0,0,1,4.352,2.963c.556.463,1.111.926,1.481,1.3a1.358,1.358,0,0,1,.556,1.2c0,.093-.093.185-.093.278a1.68,1.68,0,0,1-1.2.278,7.485,7.485,0,0,1-1.852-.278,25.12,25.12,0,0,1-5.278-2.13,1.818,1.818,0,0,1-.833-1.2V4.8l-2.315-.185a.41.41,0,0,1-.185-.648l.833-.463L20.391,2.4a.408.408,0,0,1,.37-.556l1.019.093.093-.648c0-.463.093-.556.278-.648h0Zm.37,1.481h0a.339.339,0,0,1-.37.37L21.317,2.4l.37.926a.338.338,0,0,1-.185.463h-.093l1.111.093c.185-.278.37-.648.556-.926l-.556-.833h0Zm-2.13,4.444a.741.741,0,1,1-.741.741.73.73,0,0,1,.741-.741Zm1.759.463a.716.716,0,0,1,.741.648.741.741,0,0,1-1.481,0,.786.786,0,0,1,.741-.648h0Zm2.13.093a.741.741,0,1,1-.741.741.8.8,0,0,1,.741-.741ZM26.317,8.6a.716.716,0,0,1,.741.648.741.741,0,1,1-1.481,0,.66.66,0,0,1,.741-.648Zm2.13.093a.741.741,0,1,1,0,1.481.66.66,0,0,1-.648-.741.66.66,0,0,1,.648-.741Zm-5,.463a.716.716,0,0,1,.741.648.741.741,0,0,1-1.481,0,.716.716,0,0,1,.741-.648Zm-2.315.37a.716.716,0,0,1,.741.648.741.741,0,0,1-1.481,0,.716.716,0,0,1,.741-.648Zm8.8.833a.66.66,0,0,1,.648.741.66.66,0,0,1-.648.741.73.73,0,0,1-.741-.741c0-.463.185-.741.741-.741Zm-4.815.093a.8.8,0,0,1,.741.741.741.741,0,1,1-1.481,0,.8.8,0,0,1,.741-.741Zm2.315.185a.8.8,0,0,1,.741.741.747.747,0,0,1-1.481,0,.73.73,0,0,1,.741-.741Zm-4.722.833a.8.8,0,0,1,.741.741.73.73,0,0,1-.741.741.681.681,0,0,1-.741-.741.73.73,0,0,1,.741-.741Zm6.852,1.019a.747.747,0,0,1,0,1.481.8.8,0,0,1-.741-.741.678.678,0,0,1,.741-.741Zm-4.815,0a.741.741,0,1,1,0,1.481.741.741,0,1,1,0-1.481Zm1.944.37a.73.73,0,0,1,.741.741.8.8,0,0,1-.741.741.73.73,0,0,1-.741-.741.678.678,0,0,1,.741-.741Z" fill="#fff"/></g></svg>