<svg xmlns="http://www.w3.org/2000/svg" width="32" height="32" viewBox="0 0 32 32"><g opacity="0.98"><path d="M32,16A16,16,0,1,1,16,0,16,16,0,0,1,32,16Z" fill="#f37a5d"/><path d="M12.337,8.248A.381.381,0,0,0,12,8.665.359.359,0,0,0,12.337,9a.5.5,0,1,1,0,1h-.083a1.167,1.167,0,0,0,0,2.334h0a.5.5,0,0,1,0,1,.333.333,0,1,0,0,.667,1.167,1.167,0,1,0,0-2.334h-.083a.538.538,0,0,1-.5-.5.467.467,0,0,1,.417-.5h.083A1.139,1.139,0,0,0,13.338,9.5c0-.667-.333-1.25-1-1.25h0Zm3.084,0a.292.292,0,0,0-.25.417A.359.359,0,0,0,15.5,9a.5.5,0,0,1,0,1h-.083a1.167,1.167,0,1,0,0,2.334h0a.5.5,0,0,1,0,1,.333.333,0,1,0,0,.667,1.167,1.167,0,1,0,0-2.334h-.083a.538.538,0,0,1-.5-.5.48.48,0,0,1,.5-.5h.083A1.139,1.139,0,0,0,16.588,9.5a1.16,1.16,0,0,0-1.167-1.25h0Zm3.334,0a.292.292,0,0,0-.25.417A.359.359,0,0,0,18.839,9a.5.5,0,0,1,0,1h-.083a1.167,1.167,0,0,0,0,2.334h0a.5.5,0,0,1,0,1,.333.333,0,1,0,0,.667,1.167,1.167,0,0,0,0-2.334h-.083a.5.5,0,0,1,0-1h.167A1.139,1.139,0,0,0,20.006,9.5a1.228,1.228,0,0,0-1.25-1.25h0Zm5.5,1.584a.625.625,0,0,0-.417.083,3.439,3.439,0,0,0-2.084,1.917h0a5.134,5.134,0,0,1-1.834,2.417c-.25.083-.417.167-.667.25a5.9,5.9,0,0,1-1.25.083H8c-.167.083-.25.167-.25.333v1.417h0v.083a8.021,8.021,0,0,0,4.584,5.251v1.75a.359.359,0,0,0,.333.333h6a.359.359,0,0,0,.333-.333v-1.75a8.15,8.15,0,0,0,4.5-5.251h0c0-.083.083-.083.083-.167V14.916a.359.359,0,0,0-.333-.333H21.173a4.632,4.632,0,0,0,1.334-1.167c.834-1,1.334-1.917,3.167-2.084h1a.367.367,0,0,0,.417-.083.4.4,0,0,0-.167-.5,4.086,4.086,0,0,0-2.667-.917h0ZM8.5,15.25H23.09v.667H8.5V15.25h0Z" fill="#fff"/></g></svg>