<svg xmlns="http://www.w3.org/2000/svg" width="32" height="32" viewBox="0 0 32 32"><g transform="translate(-2.781 2.527)"><path d="M39.881,23.881a16,16,0,1,1-16-16,16,16,0,0,1,16,16Z" transform="translate(-5.1 -10.408)" fill="#3a6c87"/><path d="M17.495,7.626c-4.011.093-7.555,2.332-8.675,5.69a.179.179,0,0,0,.093.28h.093l1.026.746-1.026.933h0a.461.461,0,0,0,.093.653,7.742,7.742,0,0,0,4.1,2.8h0a5.556,5.556,0,0,0,3.638-2.332,3.92,3.92,0,0,0-1.119-5.41.354.354,0,0,1,.187-.653h.28a4.66,4.66,0,0,1,1.306,6.529,7.765,7.765,0,0,1-2.985,2.332,13.886,13.886,0,0,0,3.918.28,12.11,12.11,0,0,0,3.731-.839,8.552,8.552,0,0,0,2.985-2.425,6.8,6.8,0,0,0,.839,1.026,4.889,4.889,0,0,0,1.026.933,1.619,1.619,0,0,0,1.306.28.42.42,0,0,0,.28-.28.343.343,0,0,0,.093-.28,1.183,1.183,0,0,0-.093-.56,12.258,12.258,0,0,0-.466-1.4c-.187-.56-.373-1.119-.56-1.586a4,4,0,0,1-.28-.933.722.722,0,0,1,.093-.28l.28-.56c.187-.466.466-.933.653-1.4a10.192,10.192,0,0,0,.466-1.586,2.054,2.054,0,0,0-.093-.746.955.955,0,0,0-.466-.56.8.8,0,0,0-.653,0c-.187.093-.28.187-.466.28a5.343,5.343,0,0,0-1.026,1.026A8.838,8.838,0,0,0,25.05,10.8a9.271,9.271,0,0,0-5.224-3.078c-.653-.093-1.213-.187-1.865-.28.093.187-.187.187-.466.187ZM13.95,11.45a.653.653,0,0,1,0,1.306A.721.721,0,0,1,13.2,12.1a.721.721,0,0,1,.746-.653Z" fill="#fff"/></g></svg>