<svg xmlns="http://www.w3.org/2000/svg" width="32" height="32" viewBox="0 0 32 32"><g transform="translate(0.27 0.239)"><path d="M31.73,15.761a16,16,0,1,1-16-16,16,16,0,0,1,16,16Z" fill="#e64c65"/><path d="M15.686,5.761A10,10,0,1,0,25.731,15.805,10.154,10.154,0,0,0,15.686,5.761h0ZM14.541,7.787a4.29,4.29,0,0,1,1.057.088.485.485,0,0,1,.264.441c0,.176-.264.264-.441.264a2.8,2.8,0,0,0-3.084,1.057.332.332,0,0,1-.529.088c-.176-.176-.176-.441,0-.529a3.647,3.647,0,0,1,2.731-1.41h0Zm2.731.176h.264a8.219,8.219,0,0,1,5.991,5.727.363.363,0,0,1-.7.176A7.4,7.4,0,0,0,17.361,8.58c-.176,0-.352-.088-.352-.264s.088-.352.264-.352h0Zm-5.9,3.172h.881a7.666,7.666,0,0,1,3.172.793,13.177,13.177,0,0,1,5.286,5.463,5.13,5.13,0,0,1,1.674-.264h.793a.324.324,0,0,1,.264.088c.088,0,.088,0,.176.088,0,.088.088.088.088.176v.264c-1.145,2.026-1.145,2.115-2.467,4.405a.668.668,0,0,1-.352.176c-.088,0-.176-.088-.264-.088-.088-.088-.176-.088-.264-.264a1.917,1.917,0,0,1-.441-.7,4.676,4.676,0,0,1-.529-1.674,11.809,11.809,0,0,1-1.762-.088l.352-1.057a.353.353,0,0,0-.441-.441.281.281,0,0,0-.264.264l-.441,1.145v.088c-.352-.088-.7-.088-1.057-.176,0-.088,0-.088.088-.088l.617-1.85a.388.388,0,0,0-.352-.529.281.281,0,0,0-.264.264l-.7,1.938c0,.088-.088.088-.088.176-.352-.088-.793-.264-1.145-.352h0l.881-2.379c.088-.176-.088-.529-.352-.441-.176,0-.264.088-.352.264l-.881,2.379h0a6.764,6.764,0,0,1-1.586-.881A8.594,8.594,0,0,1,8.2,12.017c0-.176.088-.352.264-.352a15.857,15.857,0,0,1,2.907-.529h0Zm-.441,1.41a.617.617,0,1,0,.617.617.6.6,0,0,0-.617-.617Z" fill="#fff"/></g></svg>