<svg xmlns="http://www.w3.org/2000/svg" width="32" height="32" viewBox="0 0 32 32"><path d="M32,16A16,16,0,1,1,16,0,16,16,0,0,1,32,16Z" fill="#3a6c87"/><path d="M15.485,7.3a8.7,8.7,0,1,0,8.735,8.735V15.68h.355c.142,0,.213-.071.284-.213A5.247,5.247,0,0,0,22.3,9.005a.252.252,0,0,0-.213-.142c-.071,0-.142.071-.213.071l-.5.639A8.92,8.92,0,0,0,15.485,7.3Zm0,.639a7.858,7.858,0,0,1,5.468,2.13l-.781.923a6.744,6.744,0,0,0-4.616-1.846,6.853,6.853,0,1,0,6.817,6.817v-.355h1.278v.355a8.047,8.047,0,0,1-8.1,8.1,7.96,7.96,0,0,1-8.1-8.1A7.971,7.971,0,0,1,15.485,7.94h0Zm6.746,1.633a4.64,4.64,0,0,1,2.13,5.539l-7.03.071,4.261-4.9.639-.71h0Zm-8.522,1.136c.071,0,.355,0,.426.142a.437.437,0,0,1,.071.5.709.709,0,0,1-.284.355.845.845,0,0,1-.781.284.429.429,0,0,1-.426-.213.439.439,0,0,1-.142-.5c.071-.142.142-.284.284-.284h.568c-.071,0,.071-.071.213-.142-.071-.071,0-.142.071-.142h0Zm8.38.142a.764.764,0,0,0-.71.71.671.671,0,0,0,.71.71.712.712,0,0,0,.71-.71c.142-.355-.213-.71-.71-.71Zm-6.036.355a.312.312,0,0,1,.355.071c.071.071.142.142.142.213a.879.879,0,0,0,.142.213c-.071-.071.071,0,.213.071.071,0,.142.071.213.071a.436.436,0,0,1,.071.426.583.583,0,0,1-.355.355c-.142.071-.284,0-.426,0a1.026,1.026,0,0,1-.71-.5,1.386,1.386,0,0,1-.071-.5.64.64,0,0,1,.426-.426h0Zm6.036.213a.142.142,0,1,1-.142.142c.142-.071.142-.142.142-.142Zm.852,1.491a.607.607,0,0,0-.426.213c-.071.142-.213.284-.142.5.071.142.213.213.284.284a.427.427,0,0,0,.284.071h.284c-.071,0,.071.071.142.142a.546.546,0,0,0,.213.142c.142,0,.355,0,.426-.142a1.209,1.209,0,0,0,.071-.5,1.552,1.552,0,0,0-.213-.355,2.179,2.179,0,0,0-.923-.355h0Zm-3.054.142h-.142c-.071,0-.142.071-.213.142a.69.69,0,0,0-.071.639.727.727,0,0,0,.355.426,1.219,1.219,0,0,0,1.065.426.877.877,0,0,0,.568-.284.637.637,0,0,0,.142-.639.472.472,0,0,0-.355-.284c-.142,0-.213-.071-.355-.071h-.426a1.226,1.226,0,0,1-.284-.213c0-.071-.142-.142-.284-.142h0Zm-6.817.213a.71.71,0,0,1,0,1.42.712.712,0,0,1-.71-.71.764.764,0,0,1,.71-.71Zm7.314.71a1.6,1.6,0,0,0,.5.071h.071v.071a.22.22,0,0,1-.142.071,2.1,2.1,0,0,0-.426-.213h0Zm-9.516.568h.213c.142.071.355.142.426.284a.436.436,0,0,1-.071.426c-.071.071-.142.071-.213.142a.55.55,0,0,1-.213.071,1.021,1.021,0,0,1-.142.213c-.071.071-.071.142-.142.213a.542.542,0,0,1-.355.142.45.45,0,0,1-.355-.426.437.437,0,0,1,.071-.5,1.067,1.067,0,0,1,.639-.5.22.22,0,0,0,.142-.071h0Zm4.332,0a.607.607,0,0,1,.426.213.439.439,0,0,1,.142.5.554.554,0,0,1-.284.284h-.568l-.142.142c-.071,0-.071.071-.213.142a.75.75,0,0,1-.355-.142.437.437,0,0,1-.071-.5,1.247,1.247,0,0,1,.284-.355,1.136,1.136,0,0,1,.781-.284h0Zm1.42,2.2h.213a.584.584,0,0,1,.426.284.436.436,0,0,1-.071.426c-.071.071-.142.071-.213.142a.351.351,0,0,1-.213.071.879.879,0,0,0-.142.213c-.071.071-.071.142-.142.213a.312.312,0,0,1-.355.071c-.213-.071-.355-.213-.355-.355a.607.607,0,0,1,0-.5,1.067,1.067,0,0,1,.639-.5.261.261,0,0,1,.213-.071h0Zm-3.977.071a1.009,1.009,0,0,1,.426.142.479.479,0,0,1,.284.426.538.538,0,0,1-.142.284h0a.07.07,0,0,1-.071.071.427.427,0,0,1-.284.071h-.213a.879.879,0,0,1-.213.142.546.546,0,0,1-.213.142.447.447,0,0,1-.426,0,.529.529,0,0,1-.213-.5.506.506,0,0,1,.213-.426,1.125,1.125,0,0,1,.852-.355h0Zm7.03,1.136a.71.71,0,0,1,0,1.42.71.71,0,1,1,0-1.42Zm-2.343.994a.71.71,0,1,1,0,1.42.712.712,0,0,1-.71-.71.671.671,0,0,1,.71-.71Zm-3.622.781h.071c.142,0,.142.071.213.142s.213.142.142.142h.284a.261.261,0,0,1,.213.071c.071.071.213.142.284.213a.552.552,0,0,1-.142.568.429.429,0,0,1-.426.213,1.14,1.14,0,0,1-.781-.355.709.709,0,0,1-.284-.355.437.437,0,0,1,.071-.5.542.542,0,0,1,.355-.142h0Z" fill="#fff"/></svg>