<svg xmlns="http://www.w3.org/2000/svg" width="32" height="32" viewBox="0 0 32 32"><g transform="translate(0.27 0.747)"><path d="M31.73,15.252a16,16,0,1,1-16-16,16,16,0,0,1,16,16h0Z" fill="#3a6c87"/><path d="M14.794,5.253a.366.366,0,0,0-.34.34v4.851l-1.532,2.3c-.085.085-.085.085-.085.17V23.976a1.512,1.512,0,0,0,.34.851,1.182,1.182,0,0,0,.851.426h3.66a1.21,1.21,0,0,0,.511-.17c.085-.085.17-.255.255-.34a2.485,2.485,0,0,0,.17-.766V12.742l-1.362-2.3V5.593a.366.366,0,0,0-.34-.34H14.794Zm.851,6.894a.333.333,0,0,1,.34.511l-.851,1.191V23.3a.34.34,0,0,1-.681,0V13.763c0-.085,0-.17.085-.17l.936-1.277c.085-.085.085-.17.17-.17h0Z" fill="#fff"/></g></svg>